<?xml version="1.0" encoding="UTF-8"?><svg id="Layer_1" xmlns="http://www.w3.org/2000/svg" viewBox="0 0 590 58"><defs><style>.cls-1{fill:#db0032;}</style></defs><path class="cls-1" d="M129.92,0V57.93l330.16,.07V0H129.92ZM405.3,54.52H133.32V3.41H405.3V54.52Zm8.52-8.52l13.06-17.03-13.06-17.03h11.62l13.06,17.03-13.06,17.03h-11.62Zm26.13,0l-5.37-7.01,5.81-7.57,11.18,14.58h-11.62Zm.43-19.48l-5.81-7.57,5.37-7.01h11.62l-11.18,14.58Zm-279.18-6.2c-.61-.77-1.43-1.34-2.47-1.71-1.04-.37-2.03-.55-2.96-.55-.54,0-1.11,.06-1.68,.19-.58,.13-1.12,.33-1.63,.6-.51,.27-.93,.63-1.25,1.08-.32,.45-.48,.99-.48,1.63,0,1.03,.38,1.81,1.15,2.35,.77,.54,1.74,1.01,2.91,1.39,1.17,.38,2.43,.77,3.77,1.15s2.6,.93,3.77,1.63c1.17,.7,2.14,1.65,2.91,2.83,.77,1.19,1.15,2.77,1.15,4.76s-.35,3.54-1.06,4.95c-.71,1.41-1.66,2.58-2.86,3.51-1.2,.93-2.59,1.62-4.18,2.07-1.59,.45-3.26,.67-5.02,.67-2.21,0-4.26-.34-6.15-1.01-1.89-.67-3.65-1.76-5.28-3.27l5.33-5.86c.77,1.03,1.74,1.82,2.91,2.38,1.17,.56,2.38,.84,3.63,.84,.61,0,1.23-.07,1.85-.22,.62-.14,1.18-.36,1.68-.65,.5-.29,.9-.66,1.2-1.1,.3-.45,.46-.98,.46-1.59,0-1.02-.39-1.83-1.18-2.43-.79-.59-1.77-1.1-2.95-1.51-1.19-.42-2.47-.83-3.84-1.25-1.38-.42-2.66-.98-3.84-1.68-1.19-.7-2.17-1.63-2.96-2.79-.78-1.15-1.18-2.67-1.18-4.56s.36-3.43,1.08-4.8c.72-1.38,1.68-2.53,2.88-3.46,1.2-.93,2.59-1.63,4.16-2.09,1.57-.46,3.19-.7,4.85-.7,1.92,0,3.78,.27,5.57,.82,1.79,.54,3.41,1.46,4.85,2.74l-5.14,5.62Zm17.34-1.68h-9.71v-6.63h26.91v6.63h-9.71v27.39h-7.5V18.64Zm21-6.63h13.16c1.73,0,3.37,.17,4.92,.5,1.55,.34,2.91,.9,4.08,1.68,1.17,.79,2.1,1.84,2.79,3.17,.69,1.33,1.03,2.99,1.03,4.97,0,2.4-.62,4.44-1.87,6.13-1.25,1.68-3.08,2.75-5.48,3.19l8.65,14.37h-8.98l-7.11-13.6h-3.7v13.6h-7.5V12Zm7.5,14.08h4.42c.67,0,1.39-.02,2.14-.07,.75-.05,1.43-.19,2.04-.43,.61-.24,1.11-.62,1.51-1.13,.4-.51,.6-1.23,.6-2.16,0-.86-.18-1.55-.53-2.07-.35-.51-.8-.9-1.35-1.18-.54-.27-1.17-.46-1.87-.55-.7-.1-1.39-.14-2.07-.14h-4.9v7.74Zm23.93-14.08h23.11v6.92h-15.61v6.34h14.75v6.92h-14.75v6.92h16.48v6.92h-23.98V12Zm41.18,0h6.2l14.8,34.02h-8.46l-2.93-7.21h-13.21l-2.83,7.21h-8.26l14.7-34.02Zm2.88,9.9l-4.13,10.57h8.31l-4.18-10.57Zm21.52-9.9h11.34l7.83,22.2h.1l7.88-22.2h11.29V46.02h-7.5V19.93h-.1l-8.94,26.09h-5.72l-8.6-26.09h-.1v26.09h-7.5V12Zm44.17,0h23.11v6.92h-15.61v6.34h14.75v6.92h-14.75v6.92h16.48v6.92h-23.98V12Zm28.75,0h13.16c1.73,0,3.37,.17,4.92,.5,1.55,.34,2.91,.9,4.08,1.68,1.17,.79,2.1,1.84,2.79,3.17,.69,1.33,1.03,2.99,1.03,4.97,0,2.4-.63,4.44-1.87,6.13-1.25,1.68-3.08,2.75-5.48,3.19l8.65,14.37h-8.98l-7.11-13.6h-3.7v13.6h-7.5V12Zm7.5,14.08h4.42c.67,0,1.39-.02,2.14-.07s1.43-.19,2.04-.43c.61-.24,1.11-.62,1.51-1.13,.4-.51,.6-1.23,.6-2.16,0-.86-.18-1.55-.53-2.07-.35-.51-.8-.9-1.35-1.18-.54-.27-1.17-.46-1.87-.55-.71-.1-1.39-.14-2.07-.14h-4.9v7.74Z"/></svg>