<?xml version="1.0" encoding="utf-8"?>
<!-- Generator: Adobe Illustrator 26.3.1, SVG Export Plug-In . SVG Version: 6.00 Build 0)  -->
<svg version="1.1" id="Layer_1" xmlns="http://www.w3.org/2000/svg" xmlns:xlink="http://www.w3.org/1999/xlink" x="0px" y="0px"
	 viewBox="0 0 590 58" style="enable-background:new 0 0 590 58;" xml:space="preserve">
<style type="text/css">
	.st0{fill:#AD9970;}
	.st1{fill:#FFFFFF;}
</style>
<g>
	<g>
		<path d="M104.74,10.2h9.03l6,24.12h0.11l7.86-24.12h7.7l7.81,24.75h0.11l6.32-24.75h8.39l-11,37.61h-7.38l-8.29-26.03h-0.11
			l-8.29,26.03h-7.12L104.74,10.2z"/>
		<path d="M161.68,10.2h8.29V47.8h-8.29V10.2z"/>
		<path d="M177.51,10.2h14.55c1.91,0,3.73,0.19,5.44,0.56c1.72,0.37,3.22,0.99,4.51,1.86c1.29,0.87,2.32,2.04,3.08,3.51
			c0.76,1.47,1.14,3.3,1.14,5.5c0,2.66-0.69,4.91-2.07,6.77c-1.38,1.86-3.4,3.04-6.06,3.53l9.56,15.88h-9.93l-7.86-15.03h-4.09V47.8
			h-8.29V10.2z M185.8,25.76h4.89c0.74,0,1.53-0.03,2.36-0.08c0.83-0.05,1.58-0.21,2.26-0.48c0.67-0.27,1.23-0.68,1.67-1.25
			c0.44-0.57,0.66-1.36,0.66-2.39c0-0.96-0.19-1.72-0.58-2.28c-0.39-0.57-0.89-1-1.49-1.3c-0.6-0.3-1.29-0.5-2.07-0.61
			c-0.78-0.11-1.54-0.16-2.28-0.16h-5.42V25.76z"/>
		<path d="M212.25,10.2h25.55v7.65h-17.26v7.01h16.31v7.65h-16.31v7.65h18.22v7.65h-26.51V10.2z"/>
		<path d="M245.71,10.2H254v29.96h15.35v7.65h-23.64V10.2z"/>
		<path d="M274.24,10.2h25.55v7.65h-17.26v7.01h16.31v7.65h-16.31v7.65h18.22v7.65h-26.51V10.2z"/>
		<path d="M325.97,19.39c-0.67-0.85-1.59-1.48-2.74-1.89c-1.15-0.41-2.24-0.61-3.27-0.61c-0.6,0-1.22,0.07-1.86,0.21
			c-0.64,0.14-1.24,0.36-1.81,0.66c-0.57,0.3-1.03,0.7-1.38,1.2c-0.35,0.5-0.53,1.1-0.53,1.81c0,1.13,0.42,2,1.27,2.6
			c0.85,0.6,1.92,1.12,3.21,1.54c1.29,0.42,2.68,0.85,4.17,1.27c1.49,0.42,2.88,1.03,4.17,1.81c1.29,0.78,2.36,1.82,3.21,3.13
			c0.85,1.31,1.27,3.06,1.27,5.26c0,2.09-0.39,3.91-1.17,5.47c-0.78,1.56-1.83,2.85-3.16,3.88c-1.33,1.03-2.87,1.79-4.62,2.28
			c-1.75,0.5-3.6,0.74-5.55,0.74c-2.44,0-4.71-0.37-6.8-1.12c-2.09-0.74-4.04-1.95-5.84-3.61l5.9-6.48
			c0.85,1.13,1.92,2.01,3.21,2.63c1.29,0.62,2.63,0.93,4.01,0.93c0.67,0,1.35-0.08,2.05-0.24c0.69-0.16,1.31-0.4,1.86-0.72
			c0.55-0.32,0.99-0.73,1.33-1.22c0.34-0.5,0.5-1.08,0.5-1.75c0-1.13-0.43-2.03-1.3-2.68c-0.87-0.65-1.96-1.21-3.27-1.67
			c-1.31-0.46-2.73-0.92-4.25-1.38c-1.52-0.46-2.94-1.08-4.25-1.86c-1.31-0.78-2.4-1.81-3.27-3.08c-0.87-1.27-1.3-2.96-1.3-5.05
			c0-2.02,0.4-3.79,1.2-5.31c0.8-1.52,1.86-2.8,3.19-3.82c1.33-1.03,2.86-1.8,4.59-2.31c1.73-0.51,3.52-0.77,5.37-0.77
			c2.12,0,4.18,0.3,6.16,0.9c1.98,0.6,3.77,1.61,5.37,3.03L325.97,19.39z"/>
		<path d="M356.46,19.39c-0.67-0.85-1.59-1.48-2.74-1.89c-1.15-0.41-2.24-0.61-3.27-0.61c-0.6,0-1.22,0.07-1.86,0.21
			c-0.64,0.14-1.24,0.36-1.81,0.66c-0.57,0.3-1.03,0.7-1.38,1.2c-0.35,0.5-0.53,1.1-0.53,1.81c0,1.13,0.42,2,1.27,2.6
			c0.85,0.6,1.92,1.12,3.21,1.54c1.29,0.42,2.68,0.85,4.17,1.27c1.49,0.42,2.88,1.03,4.17,1.81c1.29,0.78,2.36,1.82,3.21,3.13
			c0.85,1.31,1.27,3.06,1.27,5.26c0,2.09-0.39,3.91-1.17,5.47c-0.78,1.56-1.83,2.85-3.16,3.88c-1.33,1.03-2.87,1.79-4.62,2.28
			c-1.75,0.5-3.6,0.74-5.55,0.74c-2.44,0-4.71-0.37-6.8-1.12c-2.09-0.74-4.04-1.95-5.84-3.61l5.9-6.48
			c0.85,1.13,1.92,2.01,3.21,2.63c1.29,0.62,2.63,0.93,4.01,0.93c0.67,0,1.35-0.08,2.05-0.24c0.69-0.16,1.31-0.4,1.86-0.72
			c0.55-0.32,0.99-0.73,1.33-1.22c0.34-0.5,0.5-1.08,0.5-1.75c0-1.13-0.43-2.03-1.3-2.68c-0.87-0.65-1.96-1.21-3.27-1.67
			c-1.31-0.46-2.73-0.92-4.25-1.38c-1.52-0.46-2.94-1.08-4.25-1.86c-1.31-0.78-2.4-1.81-3.27-3.08c-0.87-1.27-1.3-2.96-1.3-5.05
			c0-2.02,0.4-3.79,1.2-5.31c0.8-1.52,1.86-2.8,3.19-3.82c1.33-1.03,2.86-1.8,4.59-2.31c1.73-0.51,3.52-0.77,5.37-0.77
			c2.12,0,4.18,0.3,6.16,0.9c1.98,0.6,3.77,1.61,5.37,3.03L356.46,19.39z"/>
	</g>
	<path d="M473.3,1.3h-1.99V0.24h5.24V1.3h-1.99v5.56h-1.25V1.3z M477.82,0.24h1.91l1.78,5.08h0.05l1.78-5.08h1.91v6.62h-1.25V1.34
		h-0.03l-1.93,5.53h-1.01l-1.93-5.53h-0.03v5.53h-1.25V0.24z"/>
	<path class="st0" d="M468.38,45.81c0,6.71-5.49,12.19-12.19,12.19h-72.9c-6.71,0-12.19-5.49-12.19-12.19V12.19
		c0-6.7,5.49-12.19,12.19-12.19h72.9c6.71,0,12.19,5.49,12.19,12.19V45.81z"/>
	<g>
		<path class="st1" d="M381.59,10.24h12.5l8.64,24.48h0.11l8.69-24.48h12.45v37.51h-8.27V18.99h-0.11l-9.86,28.77h-6.3l-9.48-28.77
			h-0.11v28.77h-8.27V10.24z"/>
		<path class="st1" d="M431.45,10.24h25.48v7.63h-17.22v6.99h16.27v7.63h-16.27v7.63h18.17v7.63h-26.44V10.24z"/>
	</g>
</g>
</svg>
