<svg width="550" height="178" viewBox="0 0 550 178" fill="none" xmlns="http://www.w3.org/2000/svg">
<rect width="550" height="95" transform="translate(0 83)" fill="black"/>
<path d="M22.9965 106.1H30.3665V125.195H38.2725V106.1H45.6425V153H38.2725V131.895H30.3665V153H22.9965V106.1ZM61.7843 153.67C58.1663 153.67 55.3969 152.643 53.4763 150.588C51.5556 148.533 50.5953 145.63 50.5953 141.878V117.222C50.5953 113.47 51.5556 110.567 53.4763 108.512C55.3969 106.457 58.1663 105.43 61.7843 105.43C65.4023 105.43 68.1716 106.457 70.0923 108.512C72.0129 110.567 72.9733 113.47 72.9733 117.222V141.878C72.9733 145.63 72.0129 148.533 70.0923 150.588C68.1716 152.643 65.4023 153.67 61.7843 153.67ZM61.7843 146.97C64.3303 146.97 65.6033 145.429 65.6033 142.347V116.753C65.6033 113.671 64.3303 112.13 61.7843 112.13C59.2383 112.13 57.9653 113.671 57.9653 116.753V142.347C57.9653 145.429 59.2383 146.97 61.7843 146.97ZM77.9574 106.1H85.3274V146.3H97.4545V153H77.9574V106.1ZM100.989 106.1H108.359V153H100.989V106.1ZM113.878 106.1H125.134C128.797 106.1 131.544 107.083 133.375 109.048C135.207 111.013 136.122 113.894 136.122 117.691V141.409C136.122 145.206 135.207 148.087 133.375 150.052C131.544 152.017 128.797 153 125.134 153H113.878V106.1ZM125 146.3C126.206 146.3 127.122 145.943 127.747 145.228C128.417 144.513 128.752 143.352 128.752 141.744V117.356C128.752 115.748 128.417 114.587 127.747 113.872C127.122 113.157 126.206 112.8 125 112.8H121.248V146.3H125ZM146.661 106.1H156.644L164.282 153H156.912L155.572 143.687V143.821H147.197L145.857 153H139.023L146.661 106.1ZM154.701 137.456L151.418 114.274H151.284L148.068 137.456H154.701ZM171.55 133.034L162.639 106.1H170.478L175.503 123.319H175.637L180.662 106.1H187.831L178.92 133.034V153H171.55V133.034ZM211.462 153.67C207.889 153.67 205.187 152.665 203.355 150.655C201.524 148.6 200.608 145.675 200.608 141.878V139.198H207.576V142.414C207.576 145.451 208.849 146.97 211.395 146.97C212.646 146.97 213.584 146.613 214.209 145.898C214.879 145.139 215.214 143.933 215.214 142.28C215.214 140.315 214.768 138.595 213.874 137.121C212.981 135.602 211.328 133.793 208.916 131.694C205.879 129.014 203.757 126.602 202.551 124.458C201.345 122.269 200.742 119.813 200.742 117.088C200.742 113.381 201.68 110.522 203.556 108.512C205.432 106.457 208.157 105.43 211.73 105.43C215.259 105.43 217.917 106.457 219.703 108.512C221.535 110.522 222.45 113.425 222.45 117.222V119.165H215.482V116.753C215.482 115.145 215.17 113.984 214.544 113.269C213.919 112.51 213.003 112.13 211.797 112.13C209.341 112.13 208.112 113.626 208.112 116.619C208.112 118.316 208.559 119.902 209.452 121.376C210.39 122.85 212.065 124.637 214.477 126.736C217.559 129.416 219.681 131.85 220.842 134.039C222.004 136.228 222.584 138.796 222.584 141.744C222.584 145.585 221.624 148.533 219.703 150.588C217.827 152.643 215.08 153.67 211.462 153.67ZM226.81 106.1H246.91V112.8H234.18V125.195H244.297V131.895H234.18V146.3H246.91V153H226.81V106.1ZM256.845 106.1H266.828L274.466 153H267.096L265.756 143.687V143.821H257.381L256.041 153H249.207L256.845 106.1ZM264.885 137.456L261.602 114.274H261.468L258.252 137.456H264.885ZM287.426 153.67C283.853 153.67 281.15 152.665 279.319 150.655C277.488 148.6 276.572 145.675 276.572 141.878V139.198H283.54V142.414C283.54 145.451 284.813 146.97 287.359 146.97C288.61 146.97 289.548 146.613 290.173 145.898C290.843 145.139 291.178 143.933 291.178 142.28C291.178 140.315 290.731 138.595 289.838 137.121C288.945 135.602 287.292 133.793 284.88 131.694C281.843 129.014 279.721 126.602 278.515 124.458C277.309 122.269 276.706 119.813 276.706 117.088C276.706 113.381 277.644 110.522 279.52 108.512C281.396 106.457 284.121 105.43 287.694 105.43C291.223 105.43 293.88 106.457 295.667 108.512C297.498 110.522 298.414 113.425 298.414 117.222V119.165H291.446V116.753C291.446 115.145 291.133 113.984 290.508 113.269C289.883 112.51 288.967 112.13 287.761 112.13C285.304 112.13 284.076 113.626 284.076 116.619C284.076 118.316 284.523 119.902 285.416 121.376C286.354 122.85 288.029 124.637 290.441 126.736C293.523 129.416 295.645 131.85 296.806 134.039C297.967 136.228 298.548 138.796 298.548 141.744C298.548 145.585 297.588 148.533 295.667 150.588C293.791 152.643 291.044 153.67 287.426 153.67ZM313.427 153.67C309.809 153.67 307.04 152.643 305.119 150.588C303.198 148.533 302.238 145.63 302.238 141.878V117.222C302.238 113.47 303.198 110.567 305.119 108.512C307.04 106.457 309.809 105.43 313.427 105.43C317.045 105.43 319.814 106.457 321.735 108.512C323.656 110.567 324.616 113.47 324.616 117.222V141.878C324.616 145.63 323.656 148.533 321.735 150.588C319.814 152.643 317.045 153.67 313.427 153.67ZM313.427 146.97C315.973 146.97 317.246 145.429 317.246 142.347V116.753C317.246 113.671 315.973 112.13 313.427 112.13C310.881 112.13 309.608 113.671 309.608 116.753V142.347C309.608 145.429 310.881 146.97 313.427 146.97ZM329.6 106.1H338.846L346.015 134.173H346.149V106.1H352.715V153H345.144L336.3 118.763H336.166V153H329.6V106.1ZM378.504 153.67C374.931 153.67 372.229 152.665 370.397 150.655C368.566 148.6 367.65 145.675 367.65 141.878V139.198H374.618V142.414C374.618 145.451 375.891 146.97 378.437 146.97C379.688 146.97 380.626 146.613 381.251 145.898C381.921 145.139 382.256 143.933 382.256 142.28C382.256 140.315 381.81 138.595 380.916 137.121C380.023 135.602 378.37 133.793 375.958 131.694C372.921 129.014 370.799 126.602 369.593 124.458C368.387 122.269 367.784 119.813 367.784 117.088C367.784 113.381 368.722 110.522 370.598 108.512C372.474 106.457 375.199 105.43 378.772 105.43C382.301 105.43 384.959 106.457 386.745 108.512C388.577 110.522 389.492 113.425 389.492 117.222V119.165H382.524V116.753C382.524 115.145 382.212 113.984 381.586 113.269C380.961 112.51 380.045 112.13 378.839 112.13C376.383 112.13 375.154 113.626 375.154 116.619C375.154 118.316 375.601 119.902 376.494 121.376C377.432 122.85 379.107 124.637 381.519 126.736C384.601 129.416 386.723 131.85 387.884 134.039C389.046 136.228 389.626 138.796 389.626 141.744C389.626 145.585 388.666 148.533 386.745 150.588C384.869 152.643 382.122 153.67 378.504 153.67ZM393.852 106.1H404.706C408.369 106.1 411.116 107.083 412.947 109.048C414.778 111.013 415.694 113.894 415.694 117.691V122.314C415.694 126.111 414.778 128.992 412.947 130.957C411.116 132.922 408.369 133.905 404.706 133.905H401.222V153H393.852V106.1ZM404.706 127.205C405.912 127.205 406.805 126.87 407.386 126.2C408.011 125.53 408.324 124.391 408.324 122.783V117.222C408.324 115.614 408.011 114.475 407.386 113.805C406.805 113.135 405.912 112.8 404.706 112.8H401.222V127.205H404.706ZM419.697 106.1H439.797V112.8H427.067V125.195H437.184V131.895H427.067V146.3H439.797V153H419.697V106.1ZM454.422 153.67C450.893 153.67 448.191 152.665 446.315 150.655C444.483 148.645 443.568 145.809 443.568 142.146V116.954C443.568 113.291 444.483 110.455 446.315 108.445C448.191 106.435 450.893 105.43 454.422 105.43C457.95 105.43 460.63 106.435 462.462 108.445C464.338 110.455 465.276 113.291 465.276 116.954V121.912H458.308V116.485C458.308 113.582 457.079 112.13 454.623 112.13C452.166 112.13 450.938 113.582 450.938 116.485V142.682C450.938 145.541 452.166 146.97 454.623 146.97C457.079 146.97 458.308 145.541 458.308 142.682V135.513H465.276V142.146C465.276 145.809 464.338 148.645 462.462 150.655C460.63 152.665 457.95 153.67 454.422 153.67ZM469.685 106.1H477.055V153H469.685V106.1ZM488.27 106.1H498.253L505.891 153H498.521L497.181 143.687V143.821H488.806L487.466 153H480.632L488.27 106.1ZM496.31 137.456L493.027 114.274H492.893L489.677 137.456H496.31ZM509.466 106.1H516.836V146.3H528.963V153H509.466V106.1Z" fill="white"/>
</svg>
